<svg width="32" height="32" viewBox="0 0 32 32" fill="none" xmlns="http://www.w3.org/2000/svg">
<g clip-path="url(#clip0)">
<path d="M30.3962 6.65005H16.9106L15.2067 2.10005C14.9633 1.70005 14.5738 1.30005 13.8922 1.30005H1.86721C1.08826 1.35005 0.552734 1.85005 0.552734 2.65005V29.3C0.552734 30.1 1.08826 30.65 1.86721 30.65H30.4448C31.2238 30.65 31.7593 30.1 31.7593 29.3V8.00005C31.7106 7.20005 31.1751 6.65005 30.3962 6.65005ZM29.1304 28H3.133V4.00005H13.1133L14.8172 8.55005C14.9633 9.10005 15.4501 9.35005 15.9856 9.35005H29.0817V28H29.1304Z" fill="#19232D"/>
<path d="M5.76193 13.35C5.76193 14.15 6.29746 14.7 7.07641 14.7H17.4461C18.2251 14.7 18.7606 14.15 18.7606 13.35C18.7606 12.55 18.2251 12 17.4461 12H7.02772C6.24877 12 5.76193 12.55 5.76193 13.35Z" fill="#19232D"/>
<path d="M7.02773 20H17.3975C18.1764 20 18.7119 19.45 18.7119 18.65C18.7119 17.85 18.1764 17.3 17.3975 17.3H7.02773C6.24878 17.3 5.71326 17.85 5.71326 18.65C5.76194 19.45 6.24878 20 7.02773 20Z" fill="#19232D"/>
<path d="M5.76193 24C5.76193 24.8 6.29746 25.35 7.07641 25.35H21.3409C22.1198 25.35 22.6554 24.8 22.6554 24C22.6554 23.2 22.1198 22.65 21.3409 22.65H7.02772C6.24877 22.65 5.76193 23.2 5.76193 24Z" fill="#19232D"/>
</g>
<defs>
<clipPath id="clip0">
<rect width="31.1579" height="32" fill="white" transform="translate(0.552734)"/>
</clipPath>
</defs>
</svg>
