<svg width="33" height="32" viewBox="0 0 33 32" fill="none" xmlns="http://www.w3.org/2000/svg">
<g clip-path="url(#clip0)">
<path d="M6.85657 0.900024H2.57236C1.64736 0.900024 0.868408 1.70002 0.868408 2.65002V7.10002C0.868408 8.05002 1.64736 8.85002 2.57236 8.85002H6.85657C7.78157 8.85002 8.56051 8.05002 8.56051 7.10002V2.65002C8.56051 1.70002 7.83025 0.900024 6.85657 0.900024ZM6.1263 6.35002H3.30262V3.40002H6.1263V6.35002Z" fill="#19232D"/>
<path d="M13.2342 6.15002H30.8092C31.4908 6.15002 32.0263 5.60002 32.0263 4.90002C32.0263 4.20002 31.4908 3.65002 30.8092 3.65002H13.2342C12.5526 3.65002 12.0171 4.20002 12.0171 4.90002C12.0171 5.60002 12.5526 6.15002 13.2342 6.15002Z" fill="#19232D"/>
<path d="M6.85657 11.75H2.57236C1.64736 11.75 0.868408 12.5 0.868408 13.5V17.95C0.868408 18.9 1.64736 19.7 2.57236 19.7H6.85657C7.78157 19.7 8.56051 18.9 8.56051 17.95V13.5C8.56051 12.5 7.83025 11.75 6.85657 11.75ZM6.1263 17.15H3.30262V14.2H6.1263V17.15Z" fill="#19232D"/>
<path d="M30.8092 14.4501H13.2342C12.5526 14.4501 12.0171 15.0001 12.0171 15.7001C12.0171 16.4001 12.5526 16.9501 13.2342 16.9501H30.8092C31.4908 16.9501 32.0263 16.4001 32.0263 15.7001C32.0263 15.0001 31.4908 14.4501 30.8092 14.4501Z" fill="#19232D"/>
<path d="M6.85657 23.15H2.57236C1.64736 23.15 0.868408 23.95 0.868408 24.9V29.35C0.868408 30.3 1.64736 31.1 2.57236 31.1H6.85657C7.78157 31.1 8.56051 30.3 8.56051 29.35V24.9C8.56051 23.95 7.83025 23.15 6.85657 23.15ZM6.1263 28.6H3.30262V25.65H6.1263V28.6Z" fill="#19232D"/>
<path d="M30.8092 25.85H13.2342C12.5526 25.85 12.0171 26.4 12.0171 27.1C12.0171 27.8 12.5526 28.35 13.2342 28.35H30.8092C31.4908 28.35 32.0263 27.8 32.0263 27.1C32.0263 26.4 31.4908 25.85 30.8092 25.85Z" fill="#19232D"/>
</g>
<defs>
<clipPath id="clip0">
<rect width="31.1579" height="32" fill="white" transform="translate(0.868408)"/>
</clipPath>
</defs>
</svg>
