<svg width="32" height="32" viewBox="0 0 32 32" fill="none" xmlns="http://www.w3.org/2000/svg">
<path d="M26.3697 19.35V13.05C26.3697 13.05 26.3697 13.05 26.3697 12.9V6.65C26.3697 2.95 21.8421 0 16 0C10.1579 0 5.63023 2.95 5.63023 6.65V12.9V13.05V19.3V19.45V25.3C5.63023 29.05 10.3039 32 16 32C21.696 32 26.3697 29.05 26.3697 25.35V19.45V19.35ZM16 19.45C19.1158 19.45 21.8421 18.65 23.7894 17.3V19.45C23.6434 21.2 20.5276 23.2 16 23.2C11.4723 23.2 8.35655 21.2 8.2105 19.45V17.3C10.1579 18.65 13.0302 19.45 16 19.45ZM8.2105 12.95V11.1C10.1579 12.45 12.8842 13.35 16 13.35C19.1158 13.35 21.8421 12.55 23.7894 11.1V12.95C23.7894 13.75 23.1565 14.4 22.621 14.8C21.2092 16 18.7263 16.65 16 16.65C13.4197 16.65 10.9368 16 9.37892 14.8C8.84339 14.4 8.2105 13.85 8.2105 12.95ZM16 2.65C20.5276 2.65 23.7894 4.8 23.7894 6.65C23.7894 8.5 20.5276 10.65 16 10.65C11.4723 10.65 8.2105 8.5 8.2105 6.65C8.2105 4.8 11.4723 2.65 16 2.65ZM16 29.35C11.5697 29.35 8.2105 27.2 8.2105 25.35V23.75C10.1579 25.1 12.8842 25.9 16 25.9C19.1158 25.9 21.8421 25.1 23.7894 23.75V25.35C23.7894 27.2 20.4302 29.35 16 29.35Z" fill="#19232D"/>
</svg>
