<svg width="32" height="32" viewBox="0 0 32 32" fill="none" xmlns="http://www.w3.org/2000/svg">
<g clip-path="url(#clip0)">
<path d="M19.0473 0C18.3657 0 17.8302 0.55 17.8302 1.25V11.8C17.8302 12.5 18.3657 13.05 19.0473 13.05H30.0013C30.3421 13.05 30.6828 12.9 30.8776 12.65C31.0723 12.4 31.2184 12.05 31.2184 11.7C30.7802 5.15 25.4736 0 19.0473 0ZM20.2644 10.55V2.6C24.4026 3.15 27.8105 6.35 28.6381 10.55H20.2644Z" fill="#19232D"/>
<path d="M27.3236 15.35H15.9802V4.09998C15.9802 3.39998 15.4447 2.84998 14.8118 2.84998C14.6657 2.84998 14.5197 2.84998 14.3736 2.84998C6.53547 2.84998 0.157837 9.34997 0.157837 17.4C0.157837 25.45 6.53547 32 14.3736 32C22.2118 32 28.5894 25.45 28.5894 17.4C28.5894 17.1 28.5894 16.8 28.5407 16.5C28.492 15.85 27.9565 15.35 27.3236 15.35ZM14.3736 29.5C7.84994 29.5 2.59205 24.1 2.59205 17.4C2.59205 11 7.41178 5.74998 13.546 5.34998V16.55C13.546 17.25 14.0815 17.8 14.7631 17.8H26.1065C25.9118 24.3 20.7026 29.5 14.3736 29.5Z" fill="#19232D"/>
</g>
<defs>
<clipPath id="clip0">
<rect width="31.1579" height="32" fill="white" transform="translate(0.157837)"/>
</clipPath>
</defs>
</svg>
