<svg width="32" height="32" viewBox="0 0 32 32" fill="none" xmlns="http://www.w3.org/2000/svg">
<g clip-path="url(#clip0)">
<path d="M29.113 15.9999C29.7459 14.7499 30.2327 13.4999 30.5735 12.2499C31.7906 7.99994 31.2064 4.44994 29.0643 2.19994C26.1433 -0.800057 20.9827 -0.650057 15.6275 2.09994C10.2235 -0.650057 5.063 -0.800057 2.14194 2.19994C-0.779109 5.19994 -0.633056 10.4999 2.04458 15.9999C-0.633056 21.4999 -0.779109 26.7999 2.14194 29.7999C3.55379 31.2499 5.54984 31.9999 7.88668 31.9999C9.15247 31.9999 10.5156 31.7999 11.9275 31.3499C13.1446 30.9999 14.3617 30.4999 15.5788 29.8499C16.7959 30.4999 18.013 30.9999 19.2301 31.3499C20.6419 31.7999 22.0051 31.9999 23.2709 31.9999C25.6077 31.9999 27.6038 31.2499 29.0156 29.7999C31.2064 27.5499 31.7419 23.9999 30.5248 19.7499C30.184 18.4999 29.6972 17.2499 29.113 15.9999ZM23.2709 2.49994C24.9262 2.49994 26.338 2.94994 27.3117 3.94994C28.8209 5.49994 29.1617 8.19994 28.2367 11.5499C28.0906 12.1499 27.8472 12.7499 27.6525 13.3499C26.4354 11.4999 25.0235 9.69994 23.3683 7.99994C21.713 6.29994 19.9604 4.84994 18.2077 3.64994C20.009 2.89994 21.7617 2.49994 23.2709 2.49994ZM26.338 15.9999C25.1696 18.1499 23.563 20.2999 21.6643 22.2499C19.7656 24.1999 17.6722 25.8499 15.5788 27.0499C13.4854 25.8499 11.3919 24.1999 9.49326 22.2499C7.59457 20.2999 5.988 18.1499 4.81958 15.9999C5.988 13.8999 7.54589 11.7499 9.49326 9.74994C11.3919 7.79994 13.4854 6.14994 15.5788 4.94994C17.6235 6.14994 19.7169 7.74994 21.6643 9.74994C23.563 11.6999 25.1209 13.8499 26.338 15.9999ZM3.84589 3.94994C4.81958 2.94994 6.23142 2.49994 7.88668 2.49994C9.39589 2.49994 11.1485 2.89994 12.9498 3.64994C11.1972 4.84994 9.44458 6.29994 7.78931 7.99994C6.13405 9.69994 4.72221 11.4999 3.55379 13.2999C2.04458 9.39994 1.99589 5.89994 3.84589 3.94994ZM11.2459 28.9499C7.98405 29.8999 5.40379 29.5999 3.84589 27.9999C1.99589 26.0999 1.99589 22.5499 3.55379 18.6499C4.72221 20.4999 6.13405 22.2999 7.78931 23.9999C9.44458 25.6999 11.1972 27.1499 12.9985 28.3499C12.4143 28.5999 11.8301 28.7999 11.2459 28.9499ZM27.3117 28.0499C25.8025 29.5999 23.1735 29.9499 19.9117 28.9999C19.3275 28.8499 18.7433 28.5999 18.159 28.3999C19.9604 27.1499 21.713 25.6999 23.3683 23.9999C25.0235 22.2999 26.4354 20.4999 27.6038 18.6499C27.8472 19.2499 28.0419 19.8499 28.188 20.4499C29.1617 23.7999 28.8209 26.4499 27.3117 28.0499Z" fill="#19232D"/>
<path d="M15.579 11.75C13.2908 11.75 11.4408 13.65 11.4408 16C11.4408 18.35 13.2908 20.25 15.579 20.25C17.8671 20.25 19.7171 18.35 19.7171 16C19.7171 13.65 17.8671 11.75 15.579 11.75ZM15.579 17.75C14.654 17.75 13.875 16.95 13.875 16C13.875 15.05 14.654 14.25 15.579 14.25C16.504 14.25 17.2829 15.05 17.2829 16C17.2829 16.95 16.504 17.75 15.579 17.75Z" fill="#19232D"/>
</g>
<defs>
<clipPath id="clip0">
<rect width="31.1579" height="32" fill="white"/>
</clipPath>
</defs>
</svg>
