<svg width="32" height="32" viewBox="0 0 32 32" fill="none" xmlns="http://www.w3.org/2000/svg">
<g clip-path="url(#clip0)">
<path d="M31.7703 27.05L28.8006 19.45C28.5571 18.8 27.8269 18.5 27.194 18.75C26.5611 19 26.269 19.75 26.5124 20.4L28.5085 25.5L17.7979 18V4.40002L21.0598 7.95002C21.3032 8.20002 21.644 8.35003 21.9361 8.35003C22.2282 8.35003 22.5203 8.25002 22.7637 8.00002C23.2506 7.55002 23.2506 6.75002 22.8124 6.25002L17.4571 0.400024C17.019 -0.0999756 16.1427 -0.0999756 15.7045 0.400024L10.3006 6.20002C9.86241 6.70002 9.86241 7.50002 10.3492 7.95002C10.8361 8.45002 11.615 8.40002 12.0532 7.90002L15.315 4.35002V18L4.06899 25.35L6.01635 20.35C6.25977 19.7 5.96767 19 5.33477 18.7C4.70188 18.45 4.0203 18.75 3.7282 19.4L0.807144 27.05C0.563723 27.65 0.855828 28.4 1.44004 28.65L8.45056 31.9C8.59662 32 8.79135 32 8.93741 32C9.42425 32 9.86241 31.75 10.0571 31.25C10.3492 30.6 10.0571 29.9 9.42425 29.6L5.14004 27.65L16.5321 20.2L27.34 27.7L23.1532 29.65C22.5203 29.95 22.2769 30.65 22.5203 31.3C22.715 31.75 23.1532 32.05 23.64 32.05C23.7861 32.05 23.9808 32 24.1269 31.95L31.1374 28.7C31.7703 28.35 32.0137 27.65 31.7703 27.05Z" fill="#19232D"/>
</g>
<defs>
<clipPath id="clip0">
<rect width="31.1579" height="32" fill="white" transform="translate(0.71051)"/>
</clipPath>
</defs>
</svg>
