<svg width="40" height="35" viewBox="0 0 40 35" fill="none" xmlns="http://www.w3.org/2000/svg">
<g clip-path="url(#clip0)" filter="url(#filter0_d)">
<path d="M16.8421 10.9501C15.1381 10.9501 13.7263 12.4001 13.7263 14.0001C13.7263 15.2001 14.5052 16.2501 15.5276 16.8001V26.6501C15.5276 27.4501 16.0631 28.0001 16.8421 28.0001C17.621 28.0001 18.1566 27.4501 18.1566 26.6501V16.9501C19.1789 16.4001 19.9579 15.3501 19.9579 14.1501C19.9579 12.4001 18.546 10.9501 16.8421 10.9501ZM16.8421 13.6001C17.0855 13.6001 17.3776 13.8501 17.3776 14.0001C17.3776 14.1501 17.1342 14.4001 16.8421 14.4001C16.5987 14.4001 16.3066 14.1501 16.3066 14.0001C16.3066 13.8501 16.5987 13.6001 16.8421 13.6001Z" fill="#19232D"/>
<path d="M13.1907 9.4501C12.6552 8.9001 11.8763 8.9001 11.3894 9.4501C10.221 10.6501 9.68549 12.1001 9.68549 13.7001C9.68549 15.3001 10.3184 16.9001 11.3894 18.1001C11.6329 18.3501 12.0223 18.5001 12.3144 18.5001C12.7039 18.5001 12.9473 18.3501 13.2394 18.1001C13.775 17.5501 13.775 16.7501 13.2394 16.2501C12.6065 15.6001 12.2171 14.8001 12.2171 13.8501C12.2171 12.9001 12.6065 12.1001 13.2394 11.4501C13.7263 10.8001 13.7263 10.0001 13.1907 9.4501Z" fill="#19232D"/>
<path d="M22.2947 9.4501C21.7592 8.9001 20.9802 8.9001 20.4934 9.4501C19.9579 10.0001 19.9579 10.8001 20.4934 11.3001C21.1263 11.9501 21.5157 12.7501 21.5157 13.7001C21.5157 14.6501 21.1263 15.4501 20.4934 16.1001C19.9579 16.6501 19.9579 17.4501 20.4934 17.9501C20.7368 18.2001 21.1263 18.3501 21.4184 18.3501C21.8079 18.3501 22.0513 18.2001 22.3434 17.9501C23.5118 16.7501 24.0473 15.3001 24.0473 13.5501C24.096 12.1501 23.4631 10.5501 22.2947 9.4501Z" fill="#19232D"/>
<path d="M8.03022 13.7501C8.03022 11.9001 8.66311 10.1501 9.97758 8.8001C10.5131 8.2501 10.5131 7.4501 9.97758 6.9501C9.44206 6.4001 8.66311 6.4001 8.17627 6.9501C6.37495 8.8001 5.44995 11.2001 5.44995 13.7501C5.44995 16.3001 6.47232 18.7001 8.17627 20.5501C8.41969 20.8001 8.71179 20.9501 9.10127 20.9501C9.49074 20.9501 9.73416 20.8001 10.0263 20.5501C10.5618 20.0001 10.5618 19.2001 10.0263 18.7001C8.80916 17.3501 8.03022 15.6001 8.03022 13.7501Z" fill="#19232D"/>
<path d="M25.5565 6.9501C25.021 6.4001 24.2421 6.4001 23.7552 6.9501C23.2684 7.5001 23.2197 8.3001 23.7552 8.8001C25.0697 10.1501 25.7026 11.8501 25.7026 13.7501C25.7026 15.6501 25.0697 17.3501 23.7552 18.7001C23.2197 19.2501 23.2197 20.0501 23.7552 20.5501C23.9986 20.8001 24.3881 20.9501 24.6802 20.9501C25.0697 20.9501 25.3131 20.8001 25.6052 20.5501C27.4065 18.7001 28.3315 16.3001 28.3315 13.7501C28.2829 11.2001 27.2118 8.6501 25.5565 6.9501Z" fill="#19232D"/>
<path d="M3.84339 13.75C3.84339 10.95 4.86575 8.3 6.81312 6.3C7.34865 5.75 7.34865 4.95 6.81312 4.45C6.2776 3.95 5.49865 3.9 5.01181 4.45C2.5776 6.95 1.26312 10.15 1.26312 13.75C1.26312 17.35 2.5776 20.55 5.01181 23.1C5.25523 23.35 5.54733 23.5 5.93681 23.5C6.32628 23.5 6.5697 23.35 6.86181 23.1C7.39733 22.55 7.39733 21.75 6.86181 21.25C4.91444 19.2 3.84339 16.55 3.84339 13.75Z" fill="#19232D"/>
<path d="M28.6723 4.40005C28.1368 3.85005 27.3578 3.85005 26.871 4.40005C26.3842 4.95005 26.3355 5.75005 26.871 6.25005C28.8184 8.25005 29.8407 10.9 29.8407 13.7C29.8407 16.5 28.8184 19.15 26.871 21.15C26.3355 21.7 26.3355 22.5 26.871 23C27.1144 23.25 27.5039 23.4 27.796 23.4C28.1855 23.4 28.4289 23.25 28.721 23C31.2039 20.4501 32.4697 17.15 32.4697 13.65C32.4697 10.15 31.1065 6.95005 28.6723 4.40005Z" fill="#19232D"/>
</g>
<defs id="new">
<filter id="filter0_d" x="0.263123" y="-1" width="39.1579" height="40" filterUnits="userSpaceOnUse" color-interpolation-filters="sRGB">
<feFlood flood-opacity="0" result="BackgroundImageFix"/>
<feColorMatrix in="SourceAlpha" type="matrix" values="0 0 0 0 0 0 0 0 0 0 0 0 0 0 0 0 0 0 127 0"/>
<feOffset dx="3" dy="3"/>
<feGaussianBlur stdDeviation="2"/>
<feColorMatrix type="matrix" values="0 0 0 0 0 0 0 0 0 0 0 0 0 0 0 0 0 0 0.25 0"/>
<feBlend mode="normal" in2="BackgroundImageFix" result="effect1_dropShadow"/>
<feBlend mode="normal" in="SourceGraphic" in2="effect1_dropShadow" result="shape"/>
</filter>
<clipPath id="clip0">
<rect width="31.1579" height="32" fill="white" transform="translate(1.26312)"/>
</clipPath>
</defs>
</svg>
